<svg width="474" height="122" viewBox="0 0 474 122" fill="none" xmlns="http://www.w3.org/2000/svg">
<path d="M91.208 108.785C100.595 104.042 112.753 99.4317 122.994 100.774C128.759 101.529 135.498 104.382 140.697 106.968C143.319 108.272 145.59 109.529 147.207 110.461C148.016 110.927 148.662 111.312 149.107 111.582C149.33 111.717 149.502 111.823 149.62 111.896C149.679 111.932 149.724 111.96 149.755 111.98C149.77 111.989 149.783 111.997 149.791 112.002C149.795 112.004 149.799 112.007 149.801 112.008C149.802 112.008 149.803 112.009 149.804 112.009L149.805 112.01C150.5 112.448 150.709 113.369 150.271 114.065C149.832 114.76 148.913 114.969 148.217 114.53L148.215 114.529L148.178 114.506C148.15 114.489 148.109 114.463 148.054 114.429C147.943 114.361 147.779 114.26 147.564 114.13C147.136 113.87 146.508 113.495 145.72 113.041C144.142 112.132 141.925 110.905 139.371 109.635C134.218 107.072 127.852 104.414 122.607 103.727C113.334 102.511 101.889 106.725 92.5508 111.443C87.9256 113.781 83.8984 116.2 81.0273 118.035C79.5929 118.952 78.449 119.722 77.666 120.261C77.2748 120.53 76.9735 120.741 76.7715 120.885C76.7699 120.886 76.7682 120.888 76.7666 120.889C76.2744 121.519 75.3669 121.65 74.7158 121.175L74.7129 121.173C74.7102 121.171 74.7052 121.168 74.6992 121.163C74.6871 121.154 74.6684 121.141 74.6436 121.123C74.5932 121.087 74.5169 121.032 74.416 120.96C74.214 120.817 73.9127 120.605 73.5215 120.336C72.7385 119.797 71.5947 119.026 70.1602 118.109C67.2891 116.274 63.2618 113.856 58.6367 111.519C49.2989 106.8 37.8536 102.587 28.5801 103.802C23.3354 104.489 16.9692 107.146 11.8164 109.709C9.26198 110.98 7.0452 112.207 5.46777 113.116C4.67983 113.57 4.05194 113.944 3.62305 114.204C3.40886 114.334 3.24407 114.436 3.13379 114.504C3.07871 114.538 3.03611 114.564 3.00879 114.581L2.97168 114.605L2.9707 114.606C2.27491 115.044 1.35544 114.834 0.916992 114.139C0.478764 113.443 0.687061 112.523 1.38281 112.085L2.14746 113.299C1.42753 112.156 1.38502 112.089 1.38281 112.085L1.38379 112.084C1.38438 112.084 1.38579 112.084 1.38672 112.083C1.38898 112.082 1.39247 112.079 1.39648 112.076C1.40461 112.071 1.41661 112.064 1.43164 112.055C1.46251 112.036 1.50858 112.007 1.56738 111.971C1.6851 111.898 1.85767 111.792 2.08008 111.657C2.52542 111.388 3.17179 111.002 3.98047 110.536C5.59708 109.605 7.86881 108.347 10.4902 107.043C15.6897 104.457 22.4281 101.604 28.1924 100.849C38.4334 99.5067 50.5925 104.117 59.9795 108.86C64.7166 111.254 68.8326 113.727 71.7637 115.601C73.2298 116.538 74.4023 117.326 75.21 117.882C75.3276 117.963 75.438 118.04 75.54 118.11C75.6711 118.019 75.8173 117.918 75.9775 117.808C76.7852 117.252 77.9575 116.463 79.4238 115.525C82.3549 113.652 86.471 111.179 91.208 108.785Z" fill="#ddf1f1"/>
<path fill-rule="evenodd" clip-rule="evenodd" d="M119.571 76.6397H119.574C120.733 76.6621 121.875 76.802 122.994 77.0733C128.759 78.4712 135.498 83.7494 140.697 88.5352C143.319 90.9481 145.59 93.275 147.207 94.9991C148.016 95.8615 148.662 96.5743 149.107 97.0733C149.33 97.3228 149.502 97.5197 149.62 97.6544C149.679 97.7216 149.724 97.774 149.755 97.8097C149.77 97.8274 149.783 97.8412 149.791 97.8507C149.795 97.855 149.798 97.8589 149.8 97.8614C149.801 97.8625 149.802 97.8636 149.803 97.8643L149.804 97.8663C149.802 97.8736 149.762 97.9905 149.098 99.9415L149.804 97.8663C150.21 98.3406 150.45 99.1194 150.492 99.9415H150.5V107.238H150.498C150.486 107.486 150.412 107.735 150.271 107.959C149.832 108.654 148.912 108.863 148.217 108.425L148.215 108.424L148.178 108.4C148.15 108.383 148.109 108.357 148.054 108.323C147.943 108.255 147.779 108.154 147.564 108.024C147.136 107.765 146.508 107.39 145.72 106.936C144.142 106.027 141.925 104.8 139.371 103.529C134.218 100.966 127.852 98.3085 122.607 97.6212C113.334 96.406 101.889 100.619 92.5508 105.338C87.9256 107.675 83.8984 110.095 81.0273 111.93C79.5929 112.847 78.449 113.616 77.666 114.155C77.2748 114.425 76.9735 114.636 76.7715 114.779C76.7699 114.78 76.7682 114.782 76.7666 114.783C76.2744 115.414 75.3669 115.544 74.7158 115.069L74.7129 115.067C74.7102 115.065 74.7052 115.062 74.6992 115.058C74.6871 115.049 74.6685 115.035 74.6436 115.017C74.5932 114.98 74.5167 114.926 74.416 114.855C74.214 114.711 73.9128 114.499 73.5215 114.23C72.7385 113.691 71.5947 112.921 70.1602 112.004C67.2891 110.169 63.2618 107.751 58.6367 105.413C49.299 100.694 37.8536 96.4812 28.5801 97.6964C23.3354 98.3837 16.9692 101.041 11.8164 103.604C9.26203 104.874 7.04519 106.102 5.46777 107.011C4.67988 107.465 4.05192 107.839 3.62305 108.099C3.40886 108.228 3.24406 108.33 3.13379 108.399C3.07873 108.433 3.0361 108.459 3.00879 108.476L2.97168 108.499C2.27591 108.937 1.35546 108.729 0.916992 108.033C0.789766 107.831 0.717414 107.61 0.695312 107.388H0.6875V100.239C0.704714 99.3594 0.949937 98.5098 1.38281 98.005L2.14355 100.239C1.39552 98.0423 1.38373 98.0049 1.38379 98.004L1.38477 98.003C1.38539 98.0023 1.38585 98.0011 1.38672 98.0001C1.38894 97.9975 1.39255 97.9939 1.39648 97.9893C1.40462 97.9799 1.41645 97.9659 1.43164 97.9483C1.46251 97.9127 1.50853 97.8604 1.56738 97.7931C1.68513 97.6583 1.85744 97.4615 2.08008 97.212C2.52541 96.713 3.17186 96.0001 3.98047 95.1378C5.59708 93.4137 7.86883 91.0868 10.4902 88.6739C15.6896 83.8882 22.4281 78.6101 28.1924 77.212C28.4347 77.1532 28.6785 77.1004 28.9229 77.0538C28.9592 77.0469 28.9959 77.0399 29.0322 77.0333C29.0054 77.0382 28.978 77.0438 28.9512 77.0489C34.7513 75.9552 41.12 78.248 47.2266 82.0245C47.3965 82.1296 47.5658 82.2365 47.7354 82.3438C50.5329 84.1155 53.271 86.1887 55.8682 88.379C55.9977 88.4883 56.127 88.5982 56.2559 88.7081L56.3389 88.7784C56.3752 88.8094 56.411 88.8411 56.4473 88.8722L56.8867 89.2501C57.9452 90.1675 58.9784 91.101 59.9795 92.0372C64.7166 96.4671 68.8326 101.043 71.7637 104.51C73.23 106.244 74.4023 107.704 75.21 108.733C75.3277 108.882 75.438 109.023 75.54 109.154C75.6711 108.985 75.8173 108.798 75.9775 108.594C76.7852 107.565 77.9576 106.105 79.4238 104.371C82.3548 100.905 86.47 96.3284 91.207 91.8985C98.616 84.9699 107.752 78.1955 116.309 76.8692C116.391 76.8565 116.473 76.8448 116.556 76.8331C116.6 76.8267 116.645 76.8196 116.689 76.8136C116.972 76.775 117.254 76.7421 117.535 76.7159C117.546 76.7149 117.557 76.7149 117.567 76.714C117.593 76.7116 117.619 76.7083 117.646 76.7061C117.692 76.7021 117.738 76.6991 117.784 76.6954C117.771 76.6964 117.758 76.6973 117.745 76.6983C117.77 76.6963 117.795 76.6944 117.819 76.6925C117.849 76.6902 117.879 76.6888 117.908 76.6866C117.896 76.6875 117.883 76.6886 117.87 76.6895C118.013 76.6787 118.155 76.6687 118.298 76.6612C118.284 76.662 118.269 76.6634 118.255 76.6641C118.277 76.6629 118.3 76.6614 118.322 76.6602C118.332 76.6597 118.342 76.6587 118.353 76.6583C118.348 76.6585 118.343 76.659 118.338 76.6593C118.751 76.6384 119.162 76.6319 119.571 76.6397ZM116.309 76.8692C116.306 76.8696 116.304 76.8708 116.302 76.8712L116.32 76.8682C116.317 76.8688 116.312 76.8686 116.309 76.8692ZM116.689 76.8136C116.677 76.8153 116.664 76.8177 116.651 76.8194C116.669 76.817 116.687 76.815 116.704 76.8126C116.699 76.8132 116.694 76.8129 116.689 76.8136ZM117.513 76.7188C117.523 76.7179 117.534 76.7169 117.544 76.7159C117.541 76.7162 117.538 76.7156 117.535 76.7159C117.528 76.7166 117.52 76.7181 117.513 76.7188ZM117.646 76.7061C117.634 76.7072 117.621 76.709 117.609 76.71C117.636 76.7077 117.662 76.7054 117.688 76.7032C117.674 76.7044 117.66 76.7049 117.646 76.7061Z" fill="#ddf1f1"/>
<path d="M121.983 71.1866C115.71 70.4002 109.502 72.4539 104.144 75.3018C98.0333 78.5494 92.2354 83.2462 87.3701 87.796C84.1133 90.8416 81.1502 93.9409 78.6436 96.7227L75.4062 102.06L72.4248 96.7296C69.9436 93.9819 67.0228 90.9322 63.8174 87.9347C58.9521 83.3848 53.1533 78.6881 47.043 75.4405C41.5783 72.5361 35.2304 70.4573 28.8301 71.3751V51.6915L66.4082 66.589C69.2846 67.7283 72.3124 68.3057 75.4053 68.3057C78.498 68.3057 81.5251 67.7282 84.4014 66.589L121.983 51.6905V71.1866Z" fill="#ddf1f1"/>
<path fill-rule="evenodd" clip-rule="evenodd" d="M332.589 49.504C334.64 49.504 336.59 50.0507 338.438 51.1436C340.301 52.2367 341.812 53.9577 342.973 56.3057C344.147 58.6537 344.734 61.703 344.734 65.4542C344.734 69.0437 344.174 72.0194 343.054 74.3809C341.947 76.7424 340.463 78.5037 338.601 79.6641C336.752 80.8245 334.721 81.4044 332.508 81.4044C331.051 81.4043 329.748 81.1686 328.602 80.6964C327.468 80.2106 326.496 79.5557 325.687 78.7325C324.891 77.896 324.276 76.9518 323.845 75.8995H323.683V92.6593H312.51V49.9093H323.602V55.3341H323.845C324.25 54.2816 324.843 53.3166 325.626 52.4395C326.409 51.5489 327.381 50.8398 328.541 50.3136C329.701 49.7739 331.051 49.504 332.589 49.504ZM328.379 58.087C327.353 58.087 326.47 58.3839 325.728 58.9776C324.999 59.5578 324.432 60.4007 324.027 61.5069C323.636 62.5999 323.44 63.9159 323.44 65.4542C323.44 66.9655 323.636 68.2745 324.027 69.3809C324.432 70.474 324.999 71.3245 325.728 71.9317C326.47 72.5254 327.353 72.8223 328.379 72.8223C329.404 72.8223 330.275 72.5325 330.99 71.9522C331.719 71.3585 332.272 70.5149 332.649 69.422C333.041 68.3154 333.237 66.9925 333.237 65.4542C333.237 63.9159 333.041 62.5999 332.649 61.5069C332.272 60.4008 331.719 59.5578 330.99 58.9776C330.275 58.3839 329.404 58.087 328.379 58.087Z" fill="#ddf1f1"/>
<path fill-rule="evenodd" clip-rule="evenodd" d="M400.919 49.504C403.267 49.504 405.392 49.8682 407.295 50.5968C409.198 51.3255 410.824 52.3856 412.174 53.7755C413.523 55.1518 414.562 56.825 415.291 58.795C416.02 60.7651 416.384 62.9849 416.384 65.4542V68.045H396.143V68.5313C396.143 69.5298 396.351 70.4206 396.77 71.2032C397.188 71.9859 397.789 72.5997 398.571 73.045C399.354 73.4903 400.299 73.713 401.405 73.713C402.174 73.713 402.876 73.6046 403.51 73.3888C404.157 73.1729 404.711 72.8629 405.17 72.4581C405.629 72.0398 405.966 71.5403 406.182 70.96H416.384C416.033 73.119 415.203 74.9947 413.895 76.587C412.586 78.1658 410.851 79.3944 408.692 80.2716C406.547 81.1352 404.036 81.5665 401.162 81.5665C397.843 81.5665 394.982 80.9325 392.58 79.6641C390.192 78.3822 388.349 76.5468 387.054 74.1583C385.772 71.7563 385.131 68.8818 385.131 65.5352C385.131 62.3238 385.779 59.5172 387.074 57.1153C388.37 54.7133 390.198 52.8438 392.56 51.5079C394.921 50.172 397.707 49.504 400.919 49.504ZM401.162 57.3575C400.258 57.3575 399.428 57.5533 398.673 57.9444C397.917 58.3222 397.309 58.8488 396.851 59.5235C396.405 60.1982 396.17 60.9877 396.143 61.8917H406.102C406.088 61.0012 405.858 60.2186 405.413 59.544C404.981 58.8559 404.394 58.3223 403.652 57.9444C402.924 57.5531 402.093 57.3575 401.162 57.3575Z" fill="#ddf1f1"/>
<path fill-rule="evenodd" clip-rule="evenodd" d="M458.531 49.504C460.879 49.504 463.005 49.8682 464.907 50.5968C466.81 51.3255 468.437 52.3856 469.786 53.7755C471.135 55.1518 472.175 56.825 472.903 58.795C473.632 60.7651 473.996 62.9849 473.996 65.4542V68.045H453.755V68.5313C453.755 69.5298 453.964 70.4206 454.382 71.2032C454.8 71.9859 455.401 72.5997 456.184 73.045C456.966 73.4903 457.911 73.713 459.018 73.713C459.787 73.713 460.488 73.6046 461.122 73.3888C461.77 73.1729 462.323 72.8629 462.782 72.4581C463.241 72.0398 463.578 71.5403 463.794 70.96H473.996C473.645 73.119 472.816 74.9947 471.507 76.587C470.198 78.1658 468.464 79.3944 466.305 80.2716C464.159 81.1352 461.649 81.5665 458.774 81.5665C455.455 81.5665 452.594 80.9325 450.192 79.6641C447.804 78.3822 445.961 76.5468 444.666 74.1583C443.384 71.7563 442.743 68.8818 442.743 65.5352C442.743 62.3238 443.391 59.5172 444.687 57.1153C445.982 54.7133 447.81 52.8438 450.172 51.5079C452.533 50.172 455.32 49.504 458.531 49.504ZM458.774 57.3575C457.871 57.3575 457.041 57.5533 456.285 57.9444C455.529 58.3222 454.922 58.8488 454.463 59.5235C454.018 60.1982 453.782 60.9877 453.755 61.8917H463.714C463.7 61.0012 463.471 60.2186 463.025 59.544C462.594 58.8559 462.007 58.3223 461.265 57.9444C460.536 57.5531 459.706 57.3575 458.774 57.3575Z" fill="#ddf1f1"/>
<path d="M291.145 38.9786C294.491 38.9786 297.386 39.5383 299.828 40.6583C302.271 41.7783 304.153 43.3579 305.476 45.3956C306.811 47.4197 307.487 49.7878 307.5 52.5001H296.731C296.623 51.1506 296.117 50.0976 295.213 49.3419C294.322 48.5864 292.966 48.2091 291.145 48.2091C289.984 48.2091 289.033 48.3506 288.291 48.6339C287.562 48.9038 287.022 49.2749 286.671 49.7472C286.32 50.2194 286.139 50.7592 286.125 51.3663C286.098 51.8656 286.185 52.3179 286.388 52.7227C286.604 53.1141 286.942 53.4711 287.4 53.795C287.859 54.1054 288.446 54.3892 289.161 54.6456C289.876 54.902 290.727 55.1317 291.712 55.3341L295.112 56.0626C297.406 56.5483 299.369 57.1894 301.002 57.9854C302.635 58.7816 303.971 59.7194 305.01 60.7989C306.049 61.8649 306.812 63.0656 307.298 64.4015C307.797 65.7374 308.053 67.1957 308.066 68.7745C308.053 71.5 307.372 73.8073 306.022 75.6964C304.673 77.5855 302.743 79.0228 300.233 80.0079C297.737 80.993 294.734 81.4854 291.226 81.4854C287.623 81.4854 284.478 80.9528 281.793 79.8868C279.121 78.8208 277.043 77.1809 275.559 74.9679C274.088 72.7413 273.346 69.8938 273.332 66.4259H284.02C284.087 67.6942 284.404 68.7605 284.971 69.6241C285.537 70.4877 286.334 71.1427 287.359 71.588C288.398 72.0333 289.633 72.2559 291.063 72.2559C292.264 72.2559 293.27 72.1075 294.08 71.8106C294.89 71.5138 295.504 71.1015 295.922 70.5753C296.34 70.0492 296.556 69.4489 296.569 68.7745C296.556 68.1404 296.347 67.5866 295.942 67.1143C295.551 66.6286 294.903 66.1963 293.999 65.8184C293.095 65.4271 291.873 65.063 290.335 64.7257L286.206 63.835C282.536 63.0389 279.641 61.7098 277.522 59.8477C275.417 57.972 274.371 55.4145 274.385 52.1759C274.371 49.5445 275.073 47.2436 276.49 45.2735C277.921 43.29 279.898 41.7452 282.421 40.6388C284.958 39.5323 287.866 38.9786 291.145 38.9786Z" fill="#ddf1f1"/>
<path fill-rule="evenodd" clip-rule="evenodd" d="M232.045 81.0001H220.952V75.8995H220.709C220.277 76.9517 219.657 77.8961 218.848 78.7325C218.052 79.5556 217.08 80.2106 215.933 80.6964C214.799 81.1687 213.503 81.4044 212.046 81.4044C209.833 81.4043 207.796 80.8245 205.934 79.6641C204.085 78.5037 202.6 76.7424 201.48 74.3809C200.374 72.0194 199.82 69.0437 199.82 65.4542C199.82 61.7032 200.4 58.6536 201.561 56.3057C202.735 53.9578 204.246 52.2367 206.095 51.1436C207.957 50.0506 209.914 49.504 211.965 49.504C213.503 49.504 214.853 49.7738 216.014 50.3136C217.174 50.8398 218.145 51.5489 218.928 52.4395C219.71 53.3167 220.304 54.2815 220.709 55.3341H220.871V39.545H232.045V81.0001ZM216.176 58.087C215.15 58.087 214.273 58.3839 213.544 58.9776C212.829 59.5578 212.275 60.4006 211.884 61.5069C211.506 62.5999 211.317 63.9159 211.317 65.4542C211.317 66.9925 211.506 68.3154 211.884 69.422C212.275 70.515 212.829 71.3585 213.544 71.9522C214.273 72.5324 215.15 72.8223 216.176 72.8223C217.201 72.8223 218.078 72.5254 218.807 71.9317C219.549 71.3245 220.116 70.474 220.507 69.3809C220.912 68.2745 221.114 66.9654 221.114 65.4542C221.114 63.9159 220.912 62.5999 220.507 61.5069C220.116 60.4007 219.549 59.5578 218.807 58.9776C218.078 58.384 217.201 58.0871 216.176 58.087Z" fill="#ddf1f1"/>
<path d="M248.703 67.3975C248.717 68.9357 249.108 70.1435 249.877 71.0206C250.66 71.8977 251.753 72.3369 253.156 72.337C254.087 72.337 254.891 72.1404 255.565 71.7491C256.253 71.3443 256.78 70.7775 257.145 70.0489C257.522 69.3068 257.704 68.4229 257.69 67.3975V49.9093H268.864V81.0001H258.258V75.089H257.934C257.259 77.0726 256.078 78.6252 254.392 79.7452C252.705 80.8517 250.701 81.4043 248.38 81.4044C246.208 81.4044 244.305 80.9057 242.672 79.9073C241.053 78.9087 239.791 77.5317 238.887 75.7774C237.996 74.0232 237.544 72.0122 237.53 69.7452V49.9093H248.703V67.3975Z" fill="#ddf1f1"/>
<path d="M195.048 48.6134H176.426V55.7384H193.51V64.8067H176.426V71.9317H194.968V81.0001H165.172V39.545H195.048V48.6134Z" fill="#ddf1f1"/>
<path d="M360.184 55.8194H360.507C361.208 53.8359 362.376 52.2912 364.009 51.1847C365.642 50.0646 367.605 49.504 369.899 49.504C372.099 49.504 374.009 50.0035 375.628 51.002C377.261 52.0006 378.523 53.3768 379.413 55.1309C380.317 56.8852 380.763 58.8962 380.749 61.1632V81.0001H369.575V63.5108C369.589 61.9727 369.204 60.7648 368.422 59.8878C367.653 59.0107 366.552 58.5723 365.122 58.5723C364.218 58.5724 363.422 58.775 362.733 59.1798C362.059 59.5711 361.533 60.1379 361.155 60.88C360.791 61.6086 360.601 62.4854 360.588 63.5108V81.0001H349.415V39.545H360.184V55.8194Z" fill="#ddf1f1"/>
<path d="M439.16 49.504C439.646 49.504 440.125 49.5451 440.598 49.6261C441.083 49.6935 441.549 49.7939 441.994 49.9288V59.463C441.441 59.2741 440.76 59.1326 439.95 59.0382C439.141 58.9437 438.445 58.8966 437.865 58.8966C436.772 58.8966 435.787 59.1463 434.91 59.6456C434.047 60.1314 433.365 60.8194 432.865 61.71C432.366 62.5871 432.116 63.6194 432.116 64.8067V81.0001H420.943V49.9093H431.793V55.8194H432.116C432.683 53.6334 433.581 52.0346 434.809 51.0225C436.05 50.0105 437.501 49.5041 439.16 49.504Z" fill="#ddf1f1"/>
<path d="M68.9609 1.23055C73.101 -0.409843 77.7113 -0.409872 81.8506 1.23055L147.76 27.3565C149.301 27.967 150.313 29.4565 150.313 31.1134C150.313 32.7709 149.302 34.2606 147.762 34.8712L82.0615 60.9151C77.786 62.6101 73.0255 62.6102 68.75 60.9151L21.0127 41.9903V64.6895C23.0621 66.0865 24.4082 68.4393 24.4082 71.1075C24.4082 71.6014 24.3627 72.0845 24.2744 72.5528C21.3381 73.6434 18.4978 75.2957 15.9551 77.0372C14.2584 78.1993 12.6005 79.4661 11.0254 80.7579L11.7764 77.1534C10.0123 75.7302 8.88283 73.5509 8.88281 71.1075C8.88281 68.4401 10.2289 66.0865 12.2783 64.6895V38.5284L3.05176 34.8712C1.5119 34.2598 0.500007 32.7709 0.5 31.1134C0.500048 29.4566 1.51119 27.9671 3.05176 27.3565L68.9609 1.23055Z" fill="#ddf1f1"/>
</svg>
