<svg width="150" height="122" viewBox="0 0 150 122" fill="none" xmlns="http://www.w3.org/2000/svg">
<path d="M90.7077 108.786C100.095 104.042 112.254 99.4318 122.495 100.774C128.259 101.529 134.998 104.382 140.197 106.968C142.819 108.272 145.09 109.529 146.707 110.461C147.516 110.927 148.162 111.312 148.607 111.582C148.83 111.717 149.003 111.823 149.12 111.896C149.179 111.932 149.224 111.96 149.255 111.979C149.271 111.989 149.283 111.997 149.291 112.002C149.295 112.004 149.298 112.006 149.3 112.008C149.302 112.008 149.303 112.009 149.303 112.009L149.304 112.01C149.304 112.01 149.296 112.024 148.54 113.224L149.305 112.01C150 112.449 150.209 113.368 149.771 114.064C149.332 114.76 148.413 114.969 147.717 114.53C147.717 114.53 147.716 114.53 147.715 114.529L147.678 114.506C147.651 114.489 147.609 114.463 147.554 114.429C147.444 114.361 147.279 114.26 147.065 114.13C146.636 113.87 146.008 113.496 145.22 113.042C143.642 112.132 141.426 110.905 138.871 109.635C133.718 107.072 127.352 104.414 122.107 103.727C112.834 102.512 101.389 106.725 92.0509 111.444C87.4257 113.781 83.3986 116.2 80.5274 118.035C79.0929 118.952 77.949 119.722 77.166 120.261C76.7747 120.53 76.4736 120.742 76.2715 120.885C76.2699 120.886 76.2682 120.888 76.2666 120.889C75.7744 121.519 74.8673 121.65 74.2162 121.175L74.2156 121.175C74.2151 121.174 74.2141 121.174 74.2129 121.173C74.2102 121.171 74.2055 121.168 74.1995 121.163C74.1874 121.154 74.1687 121.141 74.1436 121.123C74.0932 121.086 74.0168 121.032 73.9159 120.96C73.7138 120.817 73.4126 120.605 73.0213 120.336C72.2383 119.797 71.0946 119.027 69.66 118.11C66.7889 116.275 62.7616 113.856 58.1364 111.519C48.7986 106.8 37.3536 102.587 28.08 103.802C22.8353 104.489 16.4691 107.147 11.3162 109.71C8.76162 110.98 6.54475 112.207 4.9673 113.116C4.17914 113.571 3.55171 113.945 3.12281 114.205C2.9085 114.334 2.74371 114.436 2.63343 114.504C2.57835 114.538 2.53657 114.564 2.50925 114.581L2.47213 114.604C2.47154 114.605 2.47095 114.605 2.47067 114.605L2.47048 114.605C1.77469 115.044 0.855237 114.835 0.416776 114.139C-0.0215992 113.443 0.187119 112.524 0.882929 112.085L1.64772 113.299C0.883019 112.085 0.883206 112.085 0.883478 112.085L0.88421 112.084C0.884876 112.084 0.885893 112.083 0.886953 112.083C0.889209 112.081 0.892453 112.079 0.896462 112.077C0.904666 112.072 0.916587 112.064 0.93194 112.054C0.962806 112.035 1.0081 112.007 1.0669 111.971C1.18465 111.898 1.35741 111.792 1.58006 111.657C2.02539 111.387 2.67147 111.002 3.48015 110.536C5.09677 109.604 7.36835 108.347 9.98983 107.043C15.1894 104.457 21.9284 101.604 27.6929 100.849C37.9339 99.5067 50.0927 104.117 59.4798 108.86C64.2169 111.254 68.3328 113.727 71.2638 115.6C72.7302 116.538 73.9025 117.326 74.7101 117.882C74.8278 117.963 74.9377 118.04 75.0397 118.111C75.1708 118.019 75.3169 117.918 75.4773 117.807C76.2849 117.251 77.4573 116.463 78.9236 115.525C81.8547 113.652 85.9706 111.18 90.7077 108.786Z" fill="#ddf1f1"/>
<path d="M119.071 76.6394C119.079 76.6396 119.087 76.6398 119.095 76.64C119.088 76.6398 119.081 76.6397 119.075 76.6396C120.233 76.662 121.375 76.8019 122.494 77.0732C128.259 78.4711 134.998 83.7495 140.197 88.5354C142.819 90.9483 145.09 93.2754 146.707 94.9995C147.516 95.862 148.162 96.5749 148.607 97.0739C148.83 97.3234 149.002 97.5196 149.12 97.6543C149.179 97.7216 149.224 97.7738 149.255 97.8094C149.27 97.8272 149.282 97.8411 149.291 97.8506C149.295 97.8552 149.298 97.8591 149.3 97.8617C149.301 97.863 149.302 97.8641 149.303 97.8648C149.303 97.8651 149.304 97.8659 149.304 97.8659C149.303 97.8685 149.28 97.9367 148.598 99.9418L149.304 97.8665C149.711 98.3408 149.951 99.1195 149.993 99.9418H150V107.239H149.998C149.986 107.486 149.912 107.734 149.771 107.959C149.332 108.654 148.413 108.863 147.717 108.425C147.717 108.425 147.716 108.424 147.715 108.424L147.678 108.401C147.651 108.384 147.609 108.357 147.554 108.323C147.444 108.255 147.279 108.154 147.065 108.024C146.636 107.765 146.008 107.39 145.22 106.936C143.643 106.027 141.426 104.8 138.871 103.529C133.718 100.966 127.352 98.3088 122.107 97.6214C112.834 96.4062 101.389 100.62 92.0509 105.338C87.4257 107.676 83.3985 110.095 80.5274 111.93C79.0929 112.846 77.949 113.616 77.166 114.155C76.7747 114.425 76.4736 114.636 76.2715 114.78C76.27 114.781 76.2682 114.782 76.2666 114.783C75.7744 115.414 74.8673 115.544 74.2162 115.07L74.2156 115.069C74.2151 115.069 74.2141 115.068 74.2129 115.067C74.2102 115.065 74.2055 115.062 74.1995 115.058C74.1874 115.049 74.1686 115.035 74.1436 115.017C74.0932 114.981 74.0168 114.926 73.9159 114.855C73.7139 114.711 73.4126 114.499 73.0213 114.23C72.2383 113.691 71.0945 112.921 69.66 112.004C66.7889 110.169 62.7616 107.751 58.1364 105.413C48.7986 100.694 37.3536 96.4811 28.08 97.6962C22.8353 98.3835 16.4691 101.041 11.3162 103.604C8.76164 104.875 6.54474 106.102 4.9673 107.011C4.1792 107.465 3.55169 107.839 3.12281 108.099C2.90852 108.229 2.7437 108.33 2.63343 108.398C2.57837 108.432 2.53656 108.458 2.50925 108.475L2.47213 108.499C2.47155 108.499 2.47095 108.499 2.47067 108.499L2.47048 108.5C1.77472 108.938 0.855244 108.729 0.416776 108.034C0.289497 107.832 0.217053 107.611 0.194947 107.388L0.187266 107.388V100.24H0.188546C0.20572 99.3596 0.449998 98.51 0.882929 98.0051L1.64388 100.24C0.895736 98.0424 0.883604 98.0053 0.883661 98.0044C0.8838 98.0042 0.884218 98.0037 0.884392 98.0035C0.885052 98.0027 0.886058 98.0016 0.887136 98.0003C0.889395 97.9977 0.892628 97.9939 0.896645 97.9892C0.904847 97.9797 0.91674 97.9658 0.932123 97.948C0.962993 97.9124 1.00824 97.8603 1.06709 97.793C1.18483 97.6582 1.35757 97.462 1.58024 97.2125C2.02558 96.7135 2.67164 96.0004 3.48033 95.138C5.09694 93.4139 7.36837 91.0867 9.98983 88.6738C15.1894 83.8879 21.9284 78.6098 27.6929 77.2118C27.9352 77.1531 28.1787 77.1006 28.4231 77.054C28.4594 77.0471 28.4957 77.0402 28.5321 77.0335C28.5052 77.0384 28.4784 77.0436 28.4516 77.0487C34.2518 75.955 40.6199 78.2484 46.7265 82.025C46.8965 82.1301 47.0663 82.2362 47.2358 82.3435C50.0333 84.1152 52.7709 86.1885 55.368 88.3788C55.4976 88.4882 55.6268 88.598 55.7557 88.708L55.8387 88.7784C55.8751 88.8095 55.9112 88.8408 55.9475 88.8719L56.387 89.2506C57.4455 90.1681 58.4784 91.1014 59.4796 92.0376C64.2167 96.4676 68.3326 101.043 71.2636 104.51C72.73 106.244 73.9023 107.704 74.71 108.732C74.8277 108.882 74.9376 109.024 75.0397 109.155C75.1708 108.986 75.3168 108.798 75.4771 108.594C76.2847 107.565 77.4571 106.106 78.9234 104.371C81.8545 100.905 85.9703 96.329 90.7075 91.899C98.1197 84.9674 107.26 78.1903 115.82 76.8682L115.802 76.8709C115.886 76.8578 115.971 76.845 116.055 76.8329C116.105 76.8258 116.154 76.8193 116.204 76.8126C116.186 76.815 116.169 76.8175 116.151 76.8199C116.45 76.7787 116.747 76.7439 117.044 76.7164C117.034 76.7174 117.023 76.7183 117.012 76.7193C117.031 76.7176 117.049 76.7157 117.068 76.714C117.108 76.7103 117.148 76.707 117.188 76.7036C117.162 76.7058 117.136 76.7082 117.11 76.7106C117.168 76.7054 117.226 76.7004 117.284 76.6957C117.271 76.6968 117.258 76.6978 117.245 76.6989C117.27 76.6968 117.295 76.6946 117.32 76.6926C117.349 76.6903 117.379 76.6884 117.408 76.6862C117.396 76.6872 117.383 76.6882 117.37 76.6892C117.513 76.6784 117.656 76.669 117.798 76.6615C117.784 76.6623 117.769 76.6631 117.755 76.6639C117.777 76.6627 117.8 76.6612 117.822 76.6601C117.837 76.6593 117.852 76.6588 117.867 76.6581C117.857 76.6585 117.847 76.659 117.838 76.6595C118.251 76.6387 118.662 76.6316 119.071 76.6394Z" fill="#ddf1f1"/>
<path d="M121.483 71.1862C115.21 70.3998 109.002 72.4543 103.644 75.3022C97.5337 78.5498 91.7355 83.246 86.8702 87.7958C83.6132 90.8416 80.65 93.941 78.1433 96.723H78.1436L74.9064 102.06L71.9251 96.7301C69.4437 93.9822 66.5226 90.9323 63.3169 87.9344C58.4516 83.3846 52.6534 78.6885 46.5431 75.4408C41.0784 72.5364 34.7308 70.4573 28.3304 71.3751V51.6919L65.9086 66.5892C68.785 67.7286 71.812 68.3061 74.9049 68.3061C77.9978 68.3061 81.0248 67.7286 83.9012 66.5892L121.483 51.691V71.1862Z" fill="#ddf1f1"/>
<path d="M68.4607 1.23033C72.6007 -0.410109 77.2113 -0.410109 81.3506 1.23033L147.26 27.3563C148.801 27.9668 149.813 29.4566 149.813 31.1135C149.813 32.7712 148.802 34.2611 147.261 34.8716L81.5618 60.9151C77.2862 62.6102 72.5258 62.6102 68.2502 60.9151L20.5131 41.9907V64.6895C22.5625 66.0865 23.9086 68.4394 23.9086 71.1076C23.9086 71.6016 23.8623 72.0848 23.774 72.5532C20.8376 73.6438 17.9977 75.2958 15.4549 77.0374C13.7582 78.1995 12.1005 79.4665 10.5253 80.7584L11.2764 77.1533C9.51234 75.7301 8.38291 73.551 8.38289 71.1076C8.38289 68.4402 9.72893 66.0865 11.7784 64.6895V38.5286L2.55205 34.8716C1.01198 34.2604 7.41855e-06 32.7712 0 31.1135C2.86374e-05 29.4566 1.01126 27.9668 2.55205 27.3563L68.4607 1.23033Z" fill="#ddf1f1"/>
</svg>
